<svg xmlns="http://www.w3.org/2000/svg" width="31" height="35" viewBox="0 0 31 35" fill="none">
  <path d="M30.0365 24.7659C28.7158 23.3468 26.2446 21.2119 26.2446 14.2188C26.2446 8.90723 22.5204 4.65527 17.4987 3.61211V2.1875C17.4987 0.97959 16.5198 0 15.3125 0C14.1053 0 13.1264 0.97959 13.1264 2.1875V3.61211C8.10473 4.65527 4.38052 8.90723 4.38052 14.2188C4.38052 21.2119 1.90932 23.3468 0.588621 24.7659C0.178465 25.2068 -0.00337071 25.7339 4.72629e-05 26.25C0.00756679 27.3711 0.887352 28.4375 2.19438 28.4375H28.4307C29.7377 28.4375 30.6182 27.3711 30.625 26.25C30.6285 25.7339 30.4466 25.2062 30.0365 24.7659ZM4.61636 25.1562C6.06694 23.2442 7.65288 20.0751 7.6604 14.2584C7.6604 14.2447 7.6563 14.2324 7.6563 14.2188C7.6563 9.99004 11.0838 6.5625 15.3125 6.5625C19.5413 6.5625 22.9688 9.99004 22.9688 14.2188C22.9688 14.2324 22.9647 14.2447 22.9647 14.2584C22.9722 20.0758 24.5582 23.2449 26.0087 25.1562H4.61636ZM15.3125 35C17.727 35 19.6855 33.0415 19.6855 30.625H10.9396C10.9396 33.0415 12.8981 35 15.3125 35Z" fill="black"/>
</svg>
