<svg xmlns="http://www.w3.org/2000/svg" width="35" height="35" viewBox="0 0 35 35" fill="none">
  <path d="M17.5 6.77419C13.7601 6.77419 10.7258 9.80847 10.7258 13.5484C10.7258 17.2883 13.7601 20.3226 17.5 20.3226C21.2399 20.3226 24.2742 17.2883 24.2742 13.5484C24.2742 9.80847 21.2399 6.77419 17.5 6.77419ZM17.5 16.9355C15.63 16.9355 14.1129 15.4183 14.1129 13.5484C14.1129 11.6784 15.63 10.1613 17.5 10.1613C19.37 10.1613 20.8871 11.6784 20.8871 13.5484C20.8871 15.4183 19.37 16.9355 17.5 16.9355ZM17.5 0C7.83266 0 0 7.83266 0 17.5C0 27.1673 7.83266 35 17.5 35C27.1673 35 35 27.1673 35 17.5C35 7.83266 27.1673 0 17.5 0ZM17.5 31.6129C13.9929 31.6129 10.7893 30.3216 8.31956 28.1976C9.37097 26.5746 11.1704 25.4738 13.2308 25.4103C14.6986 25.8619 16.0958 26.0877 17.5 26.0877C18.9042 26.0877 20.3014 25.869 21.7692 25.4103C23.8296 25.4808 25.629 26.5746 26.6804 28.1976C24.2107 30.3216 21.0071 31.6129 17.5 31.6129ZM28.9808 25.6784C27.2591 23.4627 24.5988 22.0161 21.5645 22.0161C20.8448 22.0161 19.7298 22.6935 17.5 22.6935C15.2772 22.6935 14.1552 22.0161 13.4355 22.0161C10.4083 22.0161 7.74798 23.4627 6.01915 25.6784C4.36794 23.371 3.3871 20.5484 3.3871 17.5C3.3871 9.71673 9.71673 3.3871 17.5 3.3871C25.2833 3.3871 31.6129 9.71673 31.6129 17.5C31.6129 20.5484 30.6321 23.371 28.9808 25.6784Z" fill="black"/>
</svg>
