<svg xmlns="http://www.w3.org/2000/svg" width="20" height="20" viewBox="0 0 20 20" fill="none">
  <mask id="mask0_2_150" style="mask-type:alpha" maskUnits="userSpaceOnUse" x="0" y="0" width="20" height="20">
    <rect width="20" height="20" fill="#D9D9D9"/>
  </mask>
  <g mask="url(#mask0_2_150)">
    <path d="M4.16699 19.1666V0.833252H15.8337V19.1666H4.16699ZM5.83366 14.9999V17.4999H14.167V14.9999H5.83366ZM10.0003 17.0833C10.2364 17.0833 10.4344 17.0034 10.5941 16.8437C10.7538 16.6839 10.8337 16.486 10.8337 16.2499C10.8337 16.0138 10.7538 15.8159 10.5941 15.6562C10.4344 15.4964 10.2364 15.4166 10.0003 15.4166C9.76421 15.4166 9.5663 15.4964 9.40658 15.6562C9.24685 15.8159 9.16699 16.0138 9.16699 16.2499C9.16699 16.486 9.24685 16.6839 9.40658 16.8437C9.5663 17.0034 9.76421 17.0833 10.0003 17.0833ZM5.83366 13.3333H14.167V4.99992H5.83366V13.3333ZM5.83366 3.33325H14.167V2.49992H5.83366V3.33325Z" fill="#1C1B1F"/>
  </g>
</svg>
