<svg xmlns="http://www.w3.org/2000/svg" width="20" height="20" viewBox="0 0 20 20" fill="none">
  <mask id="mask0_2_158" style="mask-type:alpha" maskUnits="userSpaceOnUse" x="0" y="0" width="20" height="20">
    <rect width="20" height="20" fill="#D9D9D9"/>
  </mask>
  <g mask="url(#mask0_2_158)">
    <path d="M5.00065 9.125L3.43815 9.97917L0.958984 5.64583L6.45898 2.5H8.33398V3.33333C8.33398 3.79167 8.49718 4.18403 8.82357 4.51042C9.14996 4.83681 9.54232 5 10.0007 5C10.459 5 10.8513 4.83681 11.1777 4.51042C11.5041 4.18403 11.6673 3.79167 11.6673 3.33333V2.5H13.5423L19.0423 5.64583L16.584 9.9375L15.0007 9.14583V17.5H5.00065V9.125ZM6.66732 6.33333V15.8333H13.334V6.33333L15.9173 7.75L16.7923 6.29167L13.209 4.20833C13.0007 4.91667 12.6083 5.50347 12.0319 5.96875C11.4555 6.43403 10.7784 6.66667 10.0007 6.66667C9.22287 6.66667 8.54579 6.43403 7.9694 5.96875C7.39301 5.50347 7.00065 4.91667 6.79232 4.20833L3.20898 6.29167L4.08398 7.75L6.66732 6.33333Z" fill="#1C1B1F"/>
  </g>
</svg>
