<svg xmlns="http://www.w3.org/2000/svg" width="24" height="24" viewBox="0 0 24 24" fill="none">
  <path d="M1.5 7.125C1.5 5.676 2.676 4.5 4.125 4.5H19.875C21.324 4.5 22.5 5.676 22.5 7.125V16.875C22.5 17.5712 22.2234 18.2389 21.7312 18.7312C21.2389 19.2234 20.5712 19.5 19.875 19.5H4.125C3.42881 19.5 2.76113 19.2234 2.26884 18.7312C1.77656 18.2389 1.5 17.5712 1.5 16.875V7.125ZM4.125 6C3.82663 6 3.54048 6.11853 3.3295 6.3295C3.11853 6.54048 3 6.82663 3 7.125V16.875C3 17.496 3.504 18 4.125 18H19.875C20.1734 18 20.4595 17.8815 20.6705 17.6705C20.8815 17.4595 21 17.1734 21 16.875V7.125C21 6.82663 20.8815 6.54048 20.6705 6.3295C20.4595 6.11853 20.1734 6 19.875 6H4.125ZM14.25 9C14.0511 9 13.8603 9.07902 13.7197 9.21967C13.579 9.36032 13.5 9.55109 13.5 9.75C13.5 9.94891 13.579 10.1397 13.7197 10.2803C13.8603 10.421 14.0511 10.5 14.25 10.5H18.75C18.9489 10.5 19.1397 10.421 19.2803 10.2803C19.421 10.1397 19.5 9.94891 19.5 9.75C19.5 9.55109 19.421 9.36032 19.2803 9.21967C19.1397 9.07902 18.9489 9 18.75 9H14.25ZM14.25 13.5C14.0511 13.5 13.8603 13.579 13.7197 13.7197C13.579 13.8603 13.5 14.0511 13.5 14.25C13.5 14.4489 13.579 14.6397 13.7197 14.7803C13.8603 14.921 14.0511 15 14.25 15H18.75C18.9489 15 19.1397 14.921 19.2803 14.7803C19.421 14.6397 19.5 14.4489 19.5 14.25C19.5 14.0511 19.421 13.8603 19.2803 13.7197C19.1397 13.579 18.9489 13.5 18.75 13.5H14.25ZM7.8915 11.571C8.15881 11.571 8.42349 11.5184 8.67045 11.4161C8.91741 11.3138 9.1418 11.1638 9.33082 10.9748C9.51983 10.7858 9.66976 10.5614 9.77206 10.3145C9.87435 10.0675 9.927 9.80281 9.927 9.5355C9.927 9.26819 9.87435 9.00351 9.77206 8.75655C9.66976 8.50959 9.51983 8.2852 9.33082 8.09618C9.1418 7.90717 8.91741 7.75724 8.67045 7.65494C8.42349 7.55265 8.15881 7.5 7.8915 7.5C7.35165 7.5 6.83391 7.71445 6.45218 8.09618C6.07045 8.47791 5.856 8.99565 5.856 9.5355C5.856 10.0753 6.07045 10.5931 6.45218 10.9748C6.83391 11.3565 7.35165 11.571 7.8915 11.571ZM5.787 12.588C5.44567 12.588 5.11831 12.7236 4.87695 12.965C4.63559 13.2063 4.5 13.5337 4.5 13.875C4.50005 14.4336 4.68682 14.9762 5.03063 15.4165C5.37444 15.8568 5.85555 16.1695 6.3975 16.305L6.477 16.326C7.407 16.5585 8.3775 16.5585 9.306 16.326L9.387 16.3065C9.92895 16.171 10.4101 15.8583 10.7539 15.418C11.0977 14.9777 11.2845 14.4351 11.2845 13.8765C11.2847 13.7074 11.2516 13.5398 11.187 13.3835C11.1224 13.2272 11.0276 13.0852 10.9081 12.9655C10.7885 12.8458 10.6466 12.7509 10.4904 12.6861C10.3341 12.6213 10.1666 12.588 9.9975 12.588H5.787Z" fill="black"/>
</svg>
