<svg xmlns="http://www.w3.org/2000/svg" width="125" height="45" viewBox="0 0 125 45" fill="none">
  <g clip-path="url(#clip0_66_7247)">
    <path d="M58.0625 17.2912V3.1814H65.222C66.9048 3.1814 68.3337 3.44527 69.5186 3.97302C70.7036 4.50077 71.6097 5.28741 72.237 6.33295C72.8644 7.37849 73.178 8.68293 73.178 10.2413C73.178 11.7996 72.8644 13.0842 72.237 14.1397C71.6097 15.1951 70.7036 15.9818 69.5186 16.5095C68.3337 17.0373 66.9048 17.3012 65.222 17.3012H58.0625V17.2912ZM62.862 13.8459H65.0377C65.5555 13.8459 66.0186 13.7712 66.4218 13.6219C66.8251 13.4725 67.1637 13.2584 67.4375 12.9746C67.7113 12.6958 67.9155 12.3573 68.0549 11.9689C68.1893 11.5806 68.259 11.1375 68.259 10.6446V9.78323C68.259 9.30527 68.1893 8.87212 68.0549 8.4788C67.9155 8.09046 67.7113 7.7519 67.4375 7.47309C67.1637 7.19428 66.8251 6.98019 66.4218 6.83581C66.0186 6.69142 65.5555 6.62172 65.0377 6.62172H62.862V13.8409V13.8459Z" fill="#192D4D"/>
    <path d="M79.6201 17.5352C78.1713 17.5352 77.0909 17.1618 76.3789 16.405C75.667 15.6532 75.3135 14.5728 75.3135 13.1638V6.4624H79.64V12.6361C79.64 12.895 79.6798 13.1339 79.7545 13.353C79.8292 13.5721 79.9338 13.7613 80.0732 13.9156C80.2076 14.0749 80.3868 14.1944 80.6059 14.284C80.825 14.3737 81.0689 14.4185 81.3428 14.4185C81.766 14.4185 82.1344 14.3288 82.448 14.1496C82.7617 13.9704 83.0106 13.7314 83.1849 13.4227C83.3641 13.114 83.4537 12.7755 83.4537 12.407V6.4624H87.7803V17.2912H84.2504L83.9815 15.5885H83.8172C83.5035 16.0266 83.1202 16.3901 82.6671 16.6738C82.214 16.9626 81.7311 17.1767 81.2133 17.3211C80.6955 17.4655 80.1578 17.5352 79.6151 17.5352H79.6201Z" fill="#192D4D"/>
    <path d="M94.0187 17.5351C93.3914 17.5351 92.8089 17.4853 92.2761 17.3808C91.7434 17.2762 91.2804 17.107 90.8921 16.868C90.5037 16.629 90.2 16.3054 89.9809 15.9021C89.7619 15.4988 89.6523 14.996 89.6523 14.3935C89.6523 13.5621 89.8515 12.8899 90.2448 12.3821C90.6431 11.8743 91.2107 11.4959 91.9575 11.242C92.7043 10.9881 93.6005 10.8188 94.646 10.7292C95.6916 10.6395 96.8715 10.5947 98.1859 10.5947V10.2263C98.1859 9.88277 98.1013 9.60894 97.937 9.40481C97.7727 9.20068 97.5437 9.05132 97.2499 8.95174C96.9562 8.85714 96.6176 8.80736 96.2343 8.80736C95.9754 8.80736 95.6966 8.83225 95.3929 8.87706C95.0941 8.92685 94.8352 9.01647 94.6261 9.15587C94.412 9.2903 94.3075 9.48447 94.3075 9.72843V9.80809H89.961C89.9461 9.75332 89.9411 9.70851 89.9411 9.67366V9.53924C89.9411 8.88204 90.1851 8.29952 90.668 7.79667C91.1509 7.28884 91.8729 6.89551 92.8338 6.6167C93.7897 6.33789 94.9697 6.19849 96.3637 6.19849C97.5785 6.19849 98.649 6.313 99.575 6.53704C100.501 6.76109 101.223 7.13449 101.751 7.65726C102.278 8.17505 102.542 8.87208 102.542 9.74834V13.8907C102.542 14.1097 102.597 14.2989 102.707 14.4533C102.816 14.6126 102.98 14.6873 103.2 14.6873H104.121V17.107C103.916 17.2015 103.603 17.2961 103.18 17.3858C102.756 17.4754 102.288 17.5202 101.786 17.5202C101.143 17.5202 100.601 17.4604 100.167 17.336C99.7343 17.2115 99.3858 17.0472 99.1319 16.8331C98.878 16.619 98.7037 16.385 98.6091 16.1261H98.4448C98.1013 16.4 97.7179 16.6439 97.2848 16.853C96.8516 17.0671 96.3737 17.2314 95.8409 17.3459C95.3082 17.4604 94.7058 17.5202 94.0386 17.5202L94.0187 17.5351ZM95.5372 14.9711C95.7712 14.9711 96.0351 14.9412 96.3388 14.8765C96.6375 14.8167 96.9313 14.7221 97.2101 14.5877C97.4889 14.4583 97.7229 14.2989 97.9071 14.1048C98.0913 13.9156 98.1859 13.6816 98.1859 13.4077V12.6062C97.1852 12.6062 96.3786 12.6659 95.7563 12.7804C95.134 12.8949 94.6809 13.0592 94.3921 13.2633C94.1034 13.4675 93.959 13.7164 93.959 14.0002C93.959 14.2591 94.0386 14.4632 94.193 14.6076C94.3523 14.752 94.5465 14.8466 94.7854 14.8964C95.0244 14.9462 95.2734 14.9661 95.5323 14.9661L95.5372 14.9711Z" fill="#192D4D"/>
    <path d="M105.4 17.2912V2.41968H109.747V17.2912H105.4V17.2912Z" fill="#192D4D"/>
    <path d="M58.0625 36.2106V22.1008H67.9055C68.8067 22.1008 69.6083 22.305 70.3053 22.7182C71.0023 23.1265 71.545 23.694 71.9383 24.4209C72.3267 25.1478 72.5208 25.9892 72.5208 26.9452C72.5208 27.9011 72.3217 28.7923 71.9284 29.5291C71.53 30.266 70.9824 30.8386 70.2854 31.2418C69.5883 31.6451 68.7967 31.8492 67.9055 31.8492H62.862V36.2156H58.0625V36.2106ZM62.862 28.4388H66.4318C66.9396 28.4388 67.313 28.3143 67.562 28.0704C67.8109 27.8264 67.9304 27.463 67.9304 26.985C67.9304 26.6564 67.8707 26.3875 67.7561 26.1735C67.6416 25.9594 67.4773 25.8 67.2633 25.6905C67.0492 25.581 66.7753 25.5262 66.4318 25.5262H62.862V28.4388V28.4388Z" fill="#192D4D"/>
    <path d="M77.6095 36.4546C76.9822 36.4546 76.3997 36.4048 75.867 36.3002C75.3342 36.1957 74.8712 36.0264 74.4829 35.7874C74.0945 35.5484 73.7908 35.2248 73.5718 34.8215C73.3527 34.4182 73.2432 33.9154 73.2432 33.313C73.2432 32.4815 73.4423 31.8094 73.8356 31.3015C74.2339 30.7937 74.8015 30.4153 75.5483 30.1614C76.2951 29.9075 77.1913 29.7382 78.2369 29.6486C79.2824 29.559 80.4624 29.5142 81.7768 29.5142V29.1457C81.7768 28.8022 81.6921 28.5284 81.5278 28.3242C81.3635 28.1201 81.1345 27.9707 80.8408 27.8712C80.547 27.7766 80.2085 27.7268 79.8251 27.7268C79.5662 27.7268 79.2874 27.7517 78.9837 27.7965C78.6849 27.8463 78.4261 27.9359 78.2169 28.0753C78.0029 28.2097 77.8983 28.4039 77.8983 28.6479V28.7275H73.5518C73.5369 28.6728 73.5319 28.6279 73.5319 28.5931V28.4587C73.5319 27.8015 73.7759 27.219 74.2588 26.7161C74.7418 26.2083 75.4637 25.8149 76.4246 25.5361C77.3805 25.2573 78.5605 25.1179 79.9545 25.1179C81.1694 25.1179 82.2398 25.2324 83.1658 25.4565C84.0919 25.6805 84.8138 26.0539 85.3416 26.5767C85.8693 27.0945 86.1332 27.7915 86.1332 28.6678V32.8101C86.1332 33.0292 86.1879 33.2184 86.2975 33.3727C86.407 33.532 86.5713 33.6067 86.7904 33.6067H87.7114V36.0264C87.5073 36.121 87.1937 36.2156 86.7705 36.3052C86.3473 36.3948 85.8793 36.4396 85.3764 36.4396C84.7341 36.4396 84.1915 36.3799 83.7583 36.2554C83.3252 36.1309 82.9766 35.9666 82.7227 35.7526C82.4688 35.5385 82.2946 35.3045 82.2 35.0456H82.0357C81.6921 35.3194 81.3088 35.5634 80.8756 35.7725C80.4425 35.9866 79.9645 36.1509 79.4318 36.2654C78.899 36.3799 78.2966 36.4396 77.6295 36.4396L77.6095 36.4546ZM79.1281 33.8905C79.3621 33.8905 79.6259 33.8606 79.9296 33.7959C80.2284 33.7362 80.5221 33.6416 80.8009 33.5071C81.0797 33.3777 81.3137 33.2184 81.498 33.0242C81.6822 32.835 81.7768 32.601 81.7768 32.3272V31.5256C80.776 31.5256 79.9695 31.5853 79.3471 31.6998C78.7248 31.8144 78.2717 31.9787 77.9829 32.1828C77.6942 32.3869 77.5498 32.6359 77.5498 32.9196C77.5498 33.1785 77.6295 33.3827 77.7838 33.527C77.9431 33.6714 78.1373 33.766 78.3763 33.8158C78.6152 33.8656 78.8642 33.8855 79.1231 33.8855L79.1281 33.8905Z" fill="#192D4D"/>
    <path d="M93.6909 36.4545C92.6802 36.4545 91.784 36.2504 91.0024 35.8371C90.2207 35.4289 89.6133 34.8015 89.1652 33.9601C88.7221 33.1187 88.498 32.0582 88.498 30.7687C88.498 29.4792 88.7221 28.4437 89.1652 27.6122C89.6083 26.7807 90.2207 26.1534 91.0024 25.7452C91.784 25.3369 92.6752 25.1278 93.6909 25.1278C94.0892 25.1278 94.4925 25.1726 94.9007 25.2622C95.309 25.3518 95.7023 25.4962 96.0807 25.6954C96.4541 25.8945 96.7678 26.1484 97.0167 26.4621H97.181V21.334H101.527V36.2055H97.9975L97.6689 34.5874H97.5046C97.0416 35.2596 96.474 35.7375 95.8118 36.0213C95.1497 36.3101 94.4427 36.4495 93.6909 36.4495V36.4545ZM95.0451 33.3378C95.5529 33.3378 95.9662 33.2332 96.2848 33.0191C96.6035 32.8051 96.8424 32.5213 96.9918 32.1678C97.1412 31.8143 97.2159 31.421 97.2159 30.9978V30.5895C97.2159 30.2758 97.176 29.9721 97.0914 29.6883C97.0117 29.3996 96.8773 29.1506 96.703 28.9415C96.5238 28.7274 96.2998 28.5582 96.0259 28.4287C95.7521 28.2993 95.4235 28.2345 95.0401 28.2345C94.5223 28.2345 94.1041 28.3341 93.7905 28.5333C93.4768 28.7324 93.2428 28.9963 93.0934 29.3249C92.9441 29.6535 92.8694 30.0219 92.8694 30.4302V31.167C92.8694 31.5753 92.9441 31.9487 93.0934 32.2873C93.2428 32.6208 93.4768 32.8797 93.7905 33.0689C94.1041 33.2581 94.5223 33.3477 95.0401 33.3477L95.0451 33.3378Z" fill="#192D4D"/>
    <path d="M110.549 36.4545C109.125 36.4545 107.885 36.2504 106.825 35.8521C105.764 35.4488 104.943 34.8314 104.365 33.995C103.783 33.1636 103.494 32.0931 103.494 30.7937C103.494 29.4942 103.783 28.4636 104.355 27.6272C104.928 26.7858 105.73 26.1584 106.755 25.7502C107.781 25.3419 108.971 25.1328 110.325 25.1328C111.759 25.1328 112.989 25.332 114.009 25.7253C115.025 26.1236 115.812 26.736 116.359 27.5724C116.907 28.4088 117.181 29.4793 117.181 30.7937V31.5305H107.95C107.965 32.0234 108.065 32.4416 108.249 32.7901C108.433 33.1387 108.717 33.4025 109.1 33.5818C109.484 33.761 109.962 33.8506 110.534 33.8506C110.932 33.8506 111.271 33.8108 111.56 33.7262C111.849 33.6465 112.083 33.532 112.267 33.3876C112.451 33.2432 112.585 33.0789 112.675 32.8947C112.765 32.7105 112.809 32.5163 112.809 32.3122H117.176C117.176 32.9694 117.016 33.5569 116.693 34.0747C116.369 34.5925 115.921 35.0306 115.339 35.3791C114.756 35.7276 114.059 35.9965 113.248 36.1807C112.436 36.3649 111.535 36.4595 110.549 36.4595V36.4545ZM107.965 29.5241H112.66C112.66 29.2652 112.61 29.0262 112.516 28.8071C112.421 28.5881 112.282 28.3989 112.097 28.2445C111.913 28.0852 111.689 27.9657 111.42 27.8761C111.151 27.7865 110.848 27.7417 110.509 27.7417C109.991 27.7417 109.553 27.8164 109.195 27.9657C108.841 28.1151 108.558 28.3242 108.353 28.5931C108.149 28.8619 108.02 29.1706 107.965 29.5241V29.5241Z" fill="#192D4D"/>
    <path d="M119.142 36.2104V21.3389H123.488V36.2104H119.142Z" fill="#192D4D"/>
    <path d="M31.4757 36.4893H2.45453C2.48938 36.4196 2.51427 36.3449 2.55908 36.2802C5.63098 32.1229 8.70288 27.9657 11.7798 23.8134C11.944 23.5943 12.1034 23.3703 12.2975 23.1114H0C0.0497876 23.0367 0.0746814 22.9969 0.104554 22.957C1.13516 21.563 2.14585 20.154 3.20134 18.7798C4.37633 17.2514 5.96456 16.4199 7.88636 16.4099C15.5387 16.3851 23.1911 16.395 30.8484 16.4C31.7745 16.4 32.586 16.7385 33.2183 17.4206C34.1742 18.4512 34.453 19.6661 33.9153 20.9705C33.3677 22.2998 32.2972 23.0466 30.8683 23.0865C28.5582 23.1512 26.2431 23.0865 23.9329 23.1163C21.9115 23.1412 20.2088 23.9229 18.9293 25.4862C17.9385 26.6961 17.0523 27.9856 16.1163 29.2452C15.9968 29.4045 15.8822 29.5688 15.7329 29.768H16.0366C20.9805 29.768 25.9294 29.768 30.8733 29.768C31.2965 29.768 31.7247 29.7381 32.1429 29.6783C34.6621 29.3149 36.7831 28.1797 38.4161 26.2281C40.567 23.659 41.3337 20.7066 40.5271 17.4356C39.4218 12.9597 35.2397 9.75334 30.6244 9.75334C23.8035 9.75334 16.9875 9.75334 10.1666 9.75334H9.87288C9.9625 9.62887 10.0222 9.54424 10.082 9.46458C11.0578 8.15018 12.0187 6.82583 13.0045 5.51642C14.2243 3.9033 15.8574 3.05691 17.8837 3.04695C22.26 3.03201 26.6364 3.04197 31.0077 3.04695C32.3819 3.04695 33.7361 3.21623 35.0654 3.56972C39.4169 4.71484 42.8622 7.14447 45.3167 10.9184C47.7463 14.6574 48.4732 18.75 47.6119 23.1114C46.8999 26.6861 45.1424 29.6983 42.4489 32.1428C39.6758 34.6571 36.4147 36.081 32.6856 36.4096C32.2873 36.4445 31.884 36.4644 31.4857 36.4943L31.4757 36.4893Z" fill="#192D4D"/>
  </g>
  <defs>
    <clipPath id="clip0_66_7247">
      <rect width="124.723" height="44.54" fill="white"/>
    </clipPath>
  </defs>
</svg>
