<svg xmlns="http://www.w3.org/2000/svg" width="30" height="30" viewBox="0 0 30 30" fill="none">
<g clip-path="url(#clip0_66_7229)">
<path d="M10.4508 0.986669C7.45335 2.02652 4.86834 4.00018 3.07548 6.61777C1.28262 9.23535 0.376419 12.3589 0.489976 15.5296C0.603533 18.7002 1.73086 21.7509 3.70639 24.2335C5.68191 26.7162 8.40148 28.4999 11.4657 29.3226C13.9499 29.9636 16.5526 29.9918 19.05 29.4046C21.3125 28.8964 23.4042 27.8094 25.1203 26.25C26.9065 24.5773 28.2029 22.4495 28.8703 20.0953C29.5955 17.5351 29.7246 14.8428 29.2477 12.2249H15.2977V18.0117H23.3766C23.2151 18.9346 22.8691 19.8155 22.3593 20.6016C21.8495 21.3877 21.1863 22.0629 20.4094 22.5867C19.423 23.2395 18.3109 23.6786 17.1446 23.8757C15.9749 24.0933 14.7752 24.0933 13.6055 23.8757C12.4199 23.6309 11.2984 23.1416 10.3125 22.439C8.72851 21.3177 7.53912 19.7248 6.9141 17.8875C6.27868 16.0157 6.27868 13.9866 6.9141 12.1148C7.359 10.8028 8.09449 9.60824 9.06566 8.62026C10.177 7.46889 11.5841 6.64588 13.1324 6.24153C14.6808 5.83719 16.3106 5.86713 17.843 6.32807C19.0402 6.6954 20.1349 7.33748 21.0399 8.20307C21.9508 7.29682 22.8602 6.38823 23.768 5.47729C24.2368 4.98745 24.7477 4.52104 25.2094 4.01948C23.8278 2.73398 22.2063 1.73363 20.4375 1.07573C17.2165 -0.093824 13.6922 -0.125255 10.4508 0.986669Z" fill="white"/>
<path d="M10.4504 0.986831C13.6915 -0.125848 17.2158 -0.0952447 20.4371 1.07355C22.2062 1.73592 23.827 2.74108 25.2066 4.03136C24.7379 4.53292 24.2434 5.00167 23.7652 5.48917C22.8559 6.39699 21.9473 7.30167 21.0395 8.20324C20.1345 7.33764 19.0398 6.69556 17.8426 6.32824C16.3106 5.86568 14.6809 5.83401 13.1322 6.2367C11.5834 6.63939 10.1755 7.46088 9.06289 8.61105C8.09172 9.59902 7.35623 10.7936 6.91133 12.1056L2.05273 8.34386C3.79182 4.89518 6.80293 2.2572 10.4504 0.986831Z" fill="#E33629"/>
<path d="M0.764251 12.0703C1.0252 10.776 1.45876 9.52264 2.05331 8.34375L6.91191 12.1148C6.27649 13.9866 6.27649 16.0157 6.91191 17.8875C5.29316 19.1375 3.67363 20.3938 2.05331 21.6563C0.565385 18.6945 0.111593 15.3199 0.764251 12.0703Z" fill="#F8BD00"/>
<path d="M15.2979 12.2227H29.2479C29.7248 14.8405 29.5958 17.5328 28.8706 20.093C28.2032 22.4472 26.9067 24.575 25.1206 26.2477C23.5526 25.0242 21.9776 23.8102 20.4096 22.5867C21.187 22.0624 21.8505 21.3865 22.3604 20.5995C22.8702 19.8126 23.216 18.9308 23.3768 18.007H15.2979C15.2956 16.0805 15.2979 14.1516 15.2979 12.2227Z" fill="#587DBD"/>
<path d="M2.05078 21.6562C3.67109 20.4062 5.29062 19.15 6.90937 17.8875C7.53564 19.7254 8.72673 21.3185 10.3125 22.439C11.3014 23.1383 12.4254 23.6236 13.6125 23.864C14.7822 24.0816 15.9819 24.0816 17.1516 23.864C18.3179 23.6669 19.43 23.2278 20.4164 22.575C21.9844 23.7984 23.5594 25.0125 25.1273 26.2359C23.4115 27.7962 21.3197 28.884 19.057 29.3929C16.5596 29.98 13.9569 29.9519 11.4727 29.3109C9.5079 28.7863 7.67268 27.8615 6.08203 26.5945C4.39858 25.2577 3.02352 23.5732 2.05078 21.6562Z" fill="#319F43"/>
</g>
<defs>
<clipPath id="clip0_66_7229">
<rect width="30" height="30" fill="white"/>
</clipPath>
</defs>
</svg>
